<svg width="52" height="47" viewBox="0 0 52 47" fill="none" xmlns="http://www.w3.org/2000/svg">
<path d="M25.9788 45.0911C36.8683 45.0911 45.6959 36.0793 45.6959 24.9628C45.6959 13.8462 36.8683 4.83447 25.9788 4.83447C15.0894 4.83447 6.26172 13.8462 6.26172 24.9628C6.26172 36.0793 15.0894 45.0911 25.9788 45.0911Z" fill="#D49511"/>
<path d="M22.8469 9.2793C22.7107 10.5883 22.4977 11.8973 22.2602 13.3574C22.809 13.1098 23.4313 12.8795 23.9997 12.5565C24.4457 12.3031 24.9409 11.9404 25.2809 12.4705C25.6359 13.0241 25.3525 13.6314 24.7586 13.9159C23.9354 14.3102 23.064 14.6062 22.1352 14.9752C22.3013 15.584 22.5737 16.2468 22.6474 16.9305C22.7618 17.9928 22.7273 19.0701 22.7872 20.1393C22.8019 20.4016 22.8768 20.7009 23.0286 20.9084C23.6842 21.8053 24.3786 22.6744 25.1013 23.6084C25.9795 23.0277 26.9806 22.3763 27.9652 21.7012C28.0813 21.6215 28.1861 21.3982 28.1616 21.2657C27.9769 20.2643 27.732 19.2733 27.5597 18.2701C27.437 17.5564 26.9323 17.2485 26.3732 16.9223C25.9562 16.679 25.2801 16.397 25.7386 15.778C26.1785 15.1842 26.695 15.642 27.1312 15.9558C27.2453 16.0379 27.3503 16.1324 27.5795 16.3189C27.6905 15.9933 27.7522 15.7417 27.86 15.5111C28.0661 15.0705 28.2517 14.5133 28.8974 14.6942C29.5204 14.8687 29.5028 15.4379 29.3847 15.9197C29.018 17.4168 29.3463 18.7957 29.9996 20.1849C31.5104 18.9448 32.5926 17.4422 33.4444 15.7611C33.5726 15.5081 33.6784 15.1608 33.8942 15.0543C34.1967 14.9049 34.6067 14.8715 34.9402 14.938C35.0431 14.9586 35.1535 15.5008 35.0753 15.7465C34.8284 16.5226 34.4937 17.2713 34.1185 18.2185C34.6247 18.0186 34.972 17.7953 35.3375 17.761C35.7156 17.7256 36.1113 17.8736 36.4993 17.9414C36.3234 18.2449 36.221 18.6732 35.9562 18.8258C35.4194 19.135 34.803 19.4509 34.2043 19.4821C33.1432 19.5376 32.542 20.188 31.8694 20.8242C30.7868 21.8481 29.7004 22.8707 28.57 23.8419C27.5472 24.7206 26.4131 25.4776 25.4359 26.3999C25.1245 26.6938 25.1451 27.3424 25.038 27.8338C24.9411 28.2785 24.9844 28.7865 24.7791 29.1684C24.1473 30.3433 24.7398 31.1447 25.5359 31.8786C25.7033 32.0329 26.1424 32.113 26.322 32.0063C27.6526 31.2156 28.9492 30.3691 30.2817 29.524C29.9134 28.4606 29.4883 27.5282 28.2243 27.2371C27.7359 27.1246 26.9807 26.8224 27.2454 26.1864C27.5849 25.3703 28.2533 25.8823 28.8446 26.2215C28.8637 25.8984 28.9146 25.6504 28.8853 25.412C28.817 24.8581 29.0565 24.4288 29.5809 24.4421C29.8676 24.4493 30.2195 24.851 30.4088 25.1557C30.9304 25.9949 31.38 26.8777 31.8639 27.74C31.9043 27.8121 31.9877 27.8606 32.1266 27.9908C33.9398 26.6693 35.4202 25.1381 35.9273 22.8432C36.2927 21.1897 36.8975 19.6218 38.0795 18.3393C38.4556 17.9313 38.9426 17.6382 39.4122 18.0815C39.8711 18.5147 39.5648 18.9494 39.1842 19.338C38.4976 20.0391 37.9813 20.8395 37.829 21.8539C39.1015 22.1631 40.1455 21.9295 41.0965 21.1177C41.3304 20.9181 41.7789 20.9642 42.1288 20.8973C42.1488 21.2824 42.2449 21.6844 42.1622 22.0465C42.1066 22.2903 41.7983 22.4777 41.5248 22.7755C41.986 23.0035 42.4038 23.21 42.8792 23.3778C42.9368 23.4691 42.9368 23.5993 42.8697 23.7668C42.3389 23.8278 41.7608 24.0388 41.4314 23.8423C40.1218 23.061 38.747 23.4133 37.4302 23.3551C37.1967 24.1711 37.041 24.9279 36.7617 25.6371C36.4136 26.5207 36.6751 26.9571 37.6442 26.8888C37.9247 26.8691 38.1936 26.7148 38.4752 26.6782C38.9444 26.6171 39.2359 26.7652 39.2606 27.3181C39.2892 27.9592 38.8592 28.2783 38.3912 28.3228C37.6484 28.3935 36.8593 28.3679 36.1399 28.1878C35.4686 28.0197 35.0531 28.0988 34.5309 28.579C32.3877 30.5494 30.1704 32.441 28.0205 34.4046C27.7916 34.6137 27.7228 35.1152 27.7612 35.4613C27.82 35.9899 28.0486 36.4984 28.1845 37.0207C28.5211 38.3145 28.8965 39.6183 27.6637 40.6966C27.1316 40.6966 26.5996 40.6966 26.0274 40.6406C25.158 40.0175 25.0153 39.2069 25.0144 38.2655C25.012 35.6303 23.9036 33.4556 21.9599 31.6966C21.5528 31.3283 21.0106 30.8576 20.5372 30.8646C19.7245 30.8765 19.0267 31.3408 18.7076 32.2079C18.5436 32.6536 18.3005 33.0894 18.0039 33.4598C17.8827 33.6111 17.3855 33.6962 17.3051 33.6033C17.1437 33.417 17.05 33.0621 17.1114 32.8228C17.2211 32.3957 17.4665 32.0028 17.6846 31.5322C17.2716 31.5134 16.9312 31.5643 16.6416 31.4672C16.3168 31.3583 15.8602 31.1748 15.7735 30.9198C15.5478 30.2561 16.0456 30.0203 16.6279 29.9368C17.2989 29.8405 17.9694 29.7403 18.8307 29.6139C17.5022 28.6352 16.3312 28.0029 14.8754 28.2004C14.0773 28.3087 13.2827 28.4932 12.4831 28.5143C12.17 28.5225 11.8474 28.1776 11.5292 27.9935C11.7604 27.7107 11.9399 27.2682 12.2327 27.1756C13.0461 26.9181 13.9 26.7463 14.7504 26.6543C15.5233 26.5708 16.3127 26.6367 17.1645 26.6367C16.9574 25.8405 16.9024 25.1086 16.0534 24.9185C15.1756 24.722 14.322 24.5819 13.4548 25.1141C13.0467 25.3646 12.4422 25.457 11.9551 25.3967C10.6874 25.2399 9.43546 24.959 8.17725 24.7276C8.17725 24.3732 8.17725 24.0188 8.24135 23.6198C8.65379 23.5465 9.01432 23.4468 9.34816 23.5027C10.2824 23.6592 11.2056 23.8801 12.1331 24.0755C12.164 23.9914 12.1948 23.9072 12.2256 23.8231C12.0586 23.696 11.8015 23.5999 11.7436 23.4354C11.6286 23.1086 11.5 22.6927 11.6185 22.414C11.6909 22.2437 12.3275 22.0942 12.5138 22.2202C13.5955 22.9513 14.8221 23.017 16.0508 23.1928C16.8155 23.3023 17.7544 23.1944 18.2313 24.0154C18.5236 24.5188 18.6818 25.0997 18.8868 25.6508C19.1127 26.258 19.148 27.0792 19.5799 27.4343C20.3017 28.0276 21.2726 28.3245 22.2078 28.7798C23.0157 26.6449 23.5224 24.6261 21.9913 22.7569C21.3649 21.9922 20.4545 21.4617 19.7303 20.7667C18.9703 20.0375 18.1171 19.8339 17.0682 19.8337C15.7493 19.8336 14.4266 19.6144 13.1133 19.4343C12.5687 19.3596 12.0744 19.0793 12.2314 18.4007C12.4012 17.6667 13.0372 17.9485 13.4626 17.9981C14.1711 18.0807 14.8559 18.3716 15.5642 18.4426C16.2447 18.5108 16.9425 18.4112 17.7054 18.3826C17.2974 17.3805 17.0205 16.6004 16.6631 15.8582C16.4275 15.3689 16.3925 14.9297 16.912 14.7116C17.4521 14.4849 17.8571 14.7777 18.0705 15.315C18.2807 15.8443 18.5496 16.3555 18.7104 16.8985C19.1022 18.2223 20.0631 18.9383 21.4714 19.5105C21.4265 18.8346 21.4789 18.2632 21.3382 17.7429C20.7901 15.7172 20.2593 13.7077 20.9938 11.6107C21.2619 10.8453 21.4631 10.0571 21.6948 9.2793C22.0533 9.2793 22.4117 9.2793 22.8469 9.2793Z" fill="white"/>
</svg>
